<?xml version="1.0" encoding="UTF-8" standalone="no"?>
<svg viewBox="453 -3 96 138" version="1.1" xmlns="http://www.w3.org/2000/svg" style="fill-rule:evenodd;clip-rule:evenodd;stroke-linejoin:round;stroke-miterlimit:2;">
    <title>lykno flame</title>
    <path d="M474.214,131.99C471.281,108.535 466.397,89.062 455.84,73.689C455.794,73.623 455.777,73.541 455.793,73.462C455.808,73.383 455.855,73.313 455.923,73.269C473.415,61.725 491.915,36.022 512.705,1.022C512.775,0.904 512.917,0.848 513.048,0.887C513.18,0.926 513.268,1.05 513.263,1.187C511.637,41.864 513.154,73.496 521.537,92.705C521.57,92.779 521.571,92.862 521.541,92.937C521.511,93.012 521.452,93.071 521.377,93.102C504.15,100.245 489.449,113.916 474.214,131.99Z" style="fill:#f4b23c;"/>
    <path d="M474.214,131.99C477.451,108.575 477.774,88.502 471.555,70.92C471.528,70.844 471.533,70.761 471.569,70.688C471.604,70.616 471.667,70.561 471.744,70.536C491.628,63.912 516.15,43.873 545.291,15.447C545.389,15.351 545.54,15.334 545.657,15.406C545.774,15.477 545.828,15.619 545.787,15.75C533.688,54.621 526.966,85.568 530.093,106.291C530.105,106.371 530.084,106.452 530.036,106.517C529.987,106.581 529.915,106.623 529.835,106.634C511.347,109.075 493.608,118.475 474.214,131.99Z" style="fill:#83a2ff;"/>
    <path d="M474.214,131.99C477.44,108.656 477.772,88.642 471.62,71.104C471.576,70.98 471.585,70.843 471.643,70.725C471.701,70.606 471.804,70.516 471.929,70.475C483.943,66.428 497.645,57.504 513.031,44.807C513.89,64.737 516.427,80.891 521.459,92.526C521.512,92.647 521.514,92.784 521.465,92.906C521.415,93.028 521.319,93.126 521.197,93.177C504.048,100.34 489.396,113.979 474.214,131.99Z" style="fill:#fff;"/>
</svg>
