<?xml version="1.0" encoding="UTF-8" standalone="no"?>
<svg viewBox="0 0 547 233" version="1.1" xmlns="http://www.w3.org/2000/svg" xmlns:xlink="http://www.w3.org/1999/xlink" style="fill-rule:evenodd;clip-rule:evenodd;stroke-linejoin:round;stroke-miterlimit:2;">
    <title>lykno</title>
    <g id="lykno-v1">
        <path d="M31.865,189.192C26.146,189.192 20.873,188.044 16.045,185.748C11.217,183.453 7.336,179.823 4.401,174.859C1.467,169.894 0,163.325 0,155.149L0,29.29L33.828,29.29L33.828,143.152C33.828,148.851 34.856,152.511 36.912,154.133C38.969,155.755 41.639,156.566 44.921,156.566L44.921,187.921C43.343,188.343 41.301,188.661 38.794,188.873C36.287,189.086 33.977,189.192 31.865,189.192Z" style="fill:#fff;fill-rule:nonzero;"/>
        <path d="M91.923,179.398L46.142,74.011L80.676,74.011L124.111,174.198L91.923,179.398ZM67.514,232.314L136.13,74.011L170.664,74.011L102.051,232.314L67.514,232.314Z" style="fill:#fff;fill-rule:nonzero;"/>
        <path d="M204.214,130.686L204.214,126.362L250.981,74.011L289.078,74.011L237.44,132.467L236.533,121.449L290.203,188.026L250.584,188.026L204.214,130.686ZM180.744,29.29L214.572,29.29L214.572,188.026L180.744,188.026L180.744,29.29Z" style="fill:#fff;fill-rule:nonzero;"/>
        <path d="M366.711,71.152C374.437,71.152 380.698,72.468 385.493,75.098C390.288,77.729 393.95,81.271 396.477,85.722C399.005,90.174 400.712,95.231 401.598,100.893C402.484,106.556 402.928,112.417 402.928,118.477L402.928,188.026L368.896,188.026L368.896,120.462C368.896,113.972 367.732,109.681 365.405,107.589C363.078,105.498 359.957,104.452 356.043,104.452C352.746,104.452 349.35,105.087 345.854,106.357C342.359,107.626 339.011,109.42 335.81,111.736C332.608,114.052 329.699,116.734 327.081,119.781L321.127,102.492L330.68,102.492L330.68,188.026L296.648,188.026L296.648,74.011L321.906,74.011L328.789,96.574L317.135,95.685C321.134,91.152 325.719,87.044 330.891,83.36C336.063,79.677 341.678,76.722 347.737,74.494C353.797,72.266 360.121,71.152 366.711,71.152Z" style="fill:#fff;fill-rule:nonzero;"/>
        <path d="M474.157,190.886C462.359,190.886 451.956,188.35 442.948,183.279C433.94,178.208 426.917,171.178 421.879,162.188C416.84,153.198 414.321,142.864 414.321,131.185C414.321,119.353 416.84,108.942 421.879,99.952C426.917,90.962 433.94,83.915 442.948,78.81C451.956,73.705 462.359,71.152 474.157,71.152C486.115,71.152 496.6,73.705 505.61,78.81C514.621,83.915 521.639,90.962 526.667,99.952C531.694,108.942 534.208,119.353 534.208,131.185C534.208,142.864 531.694,153.198 526.667,162.188C521.639,171.178 514.621,178.208 505.61,183.279C496.6,188.35 486.115,190.886 474.157,190.886ZM474.183,157.79C481.705,157.79 487.84,155.319 492.59,150.377C497.339,145.434 499.713,138.987 499.713,131.035C499.713,122.972 497.339,116.469 492.59,111.528C487.84,106.587 481.705,104.117 474.183,104.117C466.772,104.117 460.714,106.575 456.009,111.492C451.303,116.409 448.95,122.878 448.95,130.9C448.95,138.925 451.303,145.413 456.009,150.364C460.714,155.315 466.772,157.79 474.183,157.79Z" style="fill:#fff;fill-rule:nonzero;"/>
    </g>
    <g id="Flame-v1">
        <path d="M474.214,131.99C471.281,108.535 466.397,89.062 455.84,73.689C455.794,73.623 455.777,73.541 455.793,73.462C455.808,73.383 455.855,73.313 455.923,73.269C473.415,61.725 491.915,36.022 512.705,1.022C512.775,0.904 512.917,0.848 513.048,0.887C513.18,0.926 513.268,1.05 513.263,1.187C511.637,41.864 513.154,73.496 521.537,92.705C521.57,92.779 521.571,92.862 521.541,92.937C521.511,93.012 521.452,93.071 521.377,93.102C504.15,100.245 489.449,113.916 474.214,131.99Z" style="fill:#f4b23c;"/>
        <path d="M474.214,131.99C477.451,108.575 477.774,88.502 471.555,70.92C471.528,70.844 471.533,70.761 471.569,70.688C471.604,70.616 471.667,70.561 471.744,70.536C491.628,63.912 516.15,43.873 545.291,15.447C545.389,15.351 545.54,15.334 545.657,15.406C545.774,15.477 545.828,15.619 545.787,15.75C533.688,54.621 526.966,85.568 530.093,106.291C530.105,106.371 530.084,106.452 530.036,106.517C529.987,106.581 529.915,106.623 529.835,106.634C511.347,109.075 493.608,118.475 474.214,131.99Z" style="fill:#83a2ff;"/>
        <path d="M474.214,131.99C477.44,108.656 477.772,88.642 471.62,71.104C471.576,70.98 471.585,70.843 471.643,70.725C471.701,70.606 471.804,70.516 471.929,70.475C483.943,66.428 497.645,57.504 513.031,44.807C513.89,64.737 516.427,80.891 521.459,92.526C521.512,92.647 521.514,92.784 521.465,92.906C521.415,93.028 521.319,93.126 521.197,93.177C504.048,100.34 489.396,113.979 474.214,131.99Z" style="fill:#fff;"/>
    </g>
</svg>
